<svg width="28" height="37" viewBox="0 0 28 37" fill="none" xmlns="http://www.w3.org/2000/svg">
<path d="M9.58409 36.0392C8.72274 24.8065 8.06762 14.5928 8.06762 14.5928L0 19.8573C0 19.8573 1.39516 23.2902 6.27213 36.0271H9.58409V36.0392Z" fill="#313032"/>
<path d="M27.9879 7.52082C27.9879 5.62849 26.6777 3.51781 26.6777 3.51781L18.3917 2.88703V2.82637L17.9549 2.86276L15.9168 2.70508V3.00834L6.81797 3.66337C6.81797 3.66337 5.65332 5.5921 5.65332 7.48443C5.65332 8.49125 5.98088 22.8536 6.2963 36.0392H14.1819C15.0676 24.6246 16.0381 12.9795 16.3657 12.4579H17.2513C17.5667 12.4579 18.5615 24.3577 19.4593 36.0392H27.357C27.6603 22.8657 28 8.52764 28 7.52082H27.9879Z" fill="#414042"/>
<path d="M16.7299 0H6.80615V3.6391H16.7299H26.6658V0H16.7299Z" fill="#313032"/>
<path d="M26.678 0.739746H6.80615V3.38417H26.678V0.739746Z" fill="#754C29"/>
<path d="M17.3727 12.494H16.293V11.9361H17.3727C17.5183 11.9361 17.6396 11.8148 17.6396 11.6692V3.44482H18.1855V11.6692C18.1855 12.118 17.8216 12.4819 17.3727 12.4819V12.494Z" fill="#313032"/>
<path d="M8.90492 0.509766C8.90492 0.509766 7.66748 1.45592 7.66748 1.81983C7.66748 2.18374 8.90492 3.1299 8.90492 3.1299H26.6658V0.509766H8.90492Z" fill="#8B5E3C"/>
<path d="M11.7555 0H10.1299V4.01516H11.7555V0Z" fill="#414042"/>
<path d="M23.342 0H21.7163V4.01516H23.342V0Z" fill="#414042"/>
<path d="M18.9862 3.51766H16.1595C15.7106 3.51766 15.3467 3.15376 15.3467 2.70493V1.1765C15.3467 0.727677 15.7106 0.36377 16.1595 0.36377H18.9862C19.4351 0.36377 19.799 0.727677 19.799 1.1765V2.70493C19.799 3.15376 19.4351 3.51766 18.9862 3.51766ZM16.1595 0.897507C16.0139 0.897507 15.8926 1.01881 15.8926 1.16438V2.69279C15.8926 2.83836 16.0139 2.95966 16.1595 2.95966H18.9862C19.1318 2.95966 19.2531 2.83836 19.2531 2.69279V1.16438C19.2531 1.01881 19.1318 0.897507 18.9862 0.897507H16.1595Z" fill="#917054"/>
<path d="M5.73854 12.4581L5.70215 10.6992C5.70215 10.6992 6.80614 11.2572 7.38846 8.37016C7.75241 6.55061 7.33994 5.01006 6.84254 3.61507L7.3642 3.43311C7.88587 4.90088 8.31048 6.53848 7.92226 8.47933C7.27928 11.6696 5.75067 12.4581 5.73854 12.4581Z" fill="#313032"/>
<path d="M27.8183 11.8394C27.5514 11.8394 26.1927 11.6817 25.5497 8.47933C25.1615 6.53848 25.5861 4.90088 26.1078 3.43311L26.6294 3.61507C26.132 5.02219 25.7317 6.56274 26.0835 8.37016C26.6658 11.2572 27.9154 10.1169 27.9275 10.1169L27.8426 11.8273H27.8062L27.8183 11.8394Z" fill="#313032"/>
</svg>
