<svg width="323" height="233" viewBox="0 0 323 233" fill="none" xmlns="http://www.w3.org/2000/svg">
<rect width="323" height="233" rx="10" fill="white"/>
<circle cx="149.509" cy="20" r="3.51667" fill="#FEB624"/>
<path d="M166.575 18.084C166.575 18.78 166.335 19.36 165.855 19.824C165.383 20.28 164.659 20.508 163.683 20.508H162.075V24H160.983V15.636H163.683C164.627 15.636 165.343 15.864 165.831 16.32C166.327 16.776 166.575 17.364 166.575 18.084ZM163.683 19.608C164.291 19.608 164.739 19.476 165.027 19.212C165.315 18.948 165.459 18.572 165.459 18.084C165.459 17.052 164.867 16.536 163.683 16.536H162.075V19.608H163.683ZM173.932 20.46C173.932 20.668 173.92 20.888 173.896 21.12H168.64C168.68 21.768 168.9 22.276 169.3 22.644C169.708 23.004 170.2 23.184 170.776 23.184C171.248 23.184 171.64 23.076 171.952 22.86C172.272 22.636 172.496 22.34 172.624 21.972H173.8C173.624 22.604 173.272 23.12 172.744 23.52C172.216 23.912 171.56 24.108 170.776 24.108C170.152 24.108 169.592 23.968 169.096 23.688C168.608 23.408 168.224 23.012 167.944 22.5C167.664 21.98 167.524 21.38 167.524 20.7C167.524 20.02 167.66 19.424 167.932 18.912C168.204 18.4 168.584 18.008 169.072 17.736C169.568 17.456 170.136 17.316 170.776 17.316C171.4 17.316 171.952 17.452 172.432 17.724C172.912 17.996 173.28 18.372 173.536 18.852C173.8 19.324 173.932 19.86 173.932 20.46ZM172.804 20.232C172.804 19.816 172.712 19.46 172.528 19.164C172.344 18.86 172.092 18.632 171.772 18.48C171.46 18.32 171.112 18.24 170.728 18.24C170.176 18.24 169.704 18.416 169.312 18.768C168.928 19.12 168.708 19.608 168.652 20.232H172.804ZM178.577 17.304C179.377 17.304 180.025 17.548 180.521 18.036C181.017 18.516 181.265 19.212 181.265 20.124V24H180.185V20.28C180.185 19.624 180.021 19.124 179.693 18.78C179.365 18.428 178.917 18.252 178.349 18.252C177.773 18.252 177.313 18.432 176.969 18.792C176.633 19.152 176.465 19.676 176.465 20.364V24H175.373V17.424H176.465V18.36C176.681 18.024 176.973 17.764 177.341 17.58C177.717 17.396 178.129 17.304 178.577 17.304ZM185.761 17.316C186.329 17.316 186.825 17.44 187.249 17.688C187.681 17.936 188.001 18.248 188.209 18.624V17.424H189.313V24.144C189.313 24.744 189.185 25.276 188.929 25.74C188.673 26.212 188.305 26.58 187.825 26.844C187.353 27.108 186.801 27.24 186.169 27.24C185.305 27.24 184.585 27.036 184.009 26.628C183.433 26.22 183.093 25.664 182.989 24.96H184.069C184.189 25.36 184.437 25.68 184.813 25.92C185.189 26.168 185.641 26.292 186.169 26.292C186.769 26.292 187.257 26.104 187.633 25.728C188.017 25.352 188.209 24.824 188.209 24.144V22.764C187.993 23.148 187.673 23.468 187.249 23.724C186.825 23.98 186.329 24.108 185.761 24.108C185.177 24.108 184.645 23.964 184.165 23.676C183.693 23.388 183.321 22.984 183.049 22.464C182.777 21.944 182.641 21.352 182.641 20.688C182.641 20.016 182.777 19.428 183.049 18.924C183.321 18.412 183.693 18.016 184.165 17.736C184.645 17.456 185.177 17.316 185.761 17.316ZM188.209 20.7C188.209 20.204 188.109 19.772 187.909 19.404C187.709 19.036 187.437 18.756 187.093 18.564C186.757 18.364 186.385 18.264 185.977 18.264C185.569 18.264 185.197 18.36 184.861 18.552C184.525 18.744 184.257 19.024 184.057 19.392C183.857 19.76 183.757 20.192 183.757 20.688C183.757 21.192 183.857 21.632 184.057 22.008C184.257 22.376 184.525 22.66 184.861 22.86C185.197 23.052 185.569 23.148 185.977 23.148C186.385 23.148 186.757 23.052 187.093 22.86C187.437 22.66 187.709 22.376 187.909 22.008C188.109 21.632 188.209 21.196 188.209 20.7ZM194.422 17.304C194.918 17.304 195.366 17.412 195.766 17.628C196.166 17.836 196.478 18.152 196.702 18.576C196.934 19 197.05 19.516 197.05 20.124V24H195.97V20.28C195.97 19.624 195.806 19.124 195.478 18.78C195.15 18.428 194.702 18.252 194.134 18.252C193.558 18.252 193.098 18.432 192.754 18.792C192.418 19.152 192.25 19.676 192.25 20.364V24H191.158V15.12H192.25V18.36C192.466 18.024 192.762 17.764 193.138 17.58C193.522 17.396 193.95 17.304 194.422 17.304ZM198.426 20.688C198.426 20.016 198.562 19.428 198.834 18.924C199.106 18.412 199.478 18.016 199.95 17.736C200.43 17.456 200.962 17.316 201.546 17.316C202.122 17.316 202.622 17.44 203.046 17.688C203.47 17.936 203.786 18.248 203.994 18.624V17.424H205.098V24H203.994V22.776C203.778 23.16 203.454 23.48 203.022 23.736C202.598 23.984 202.102 24.108 201.534 24.108C200.95 24.108 200.422 23.964 199.95 23.676C199.478 23.388 199.106 22.984 198.834 22.464C198.562 21.944 198.426 21.352 198.426 20.688ZM203.994 20.7C203.994 20.204 203.894 19.772 203.694 19.404C203.494 19.036 203.222 18.756 202.878 18.564C202.542 18.364 202.17 18.264 201.762 18.264C201.354 18.264 200.982 18.36 200.646 18.552C200.31 18.744 200.042 19.024 199.842 19.392C199.642 19.76 199.542 20.192 199.542 20.688C199.542 21.192 199.642 21.632 199.842 22.008C200.042 22.376 200.31 22.66 200.646 22.86C200.982 23.052 201.354 23.148 201.762 23.148C202.17 23.148 202.542 23.052 202.878 22.86C203.222 22.66 203.494 22.376 203.694 22.008C203.894 21.632 203.994 21.196 203.994 20.7ZM209.272 24.108C208.768 24.108 208.316 24.024 207.916 23.856C207.516 23.68 207.2 23.44 206.968 23.136C206.736 22.824 206.608 22.468 206.584 22.068H207.712C207.744 22.396 207.896 22.664 208.168 22.872C208.448 23.08 208.812 23.184 209.26 23.184C209.676 23.184 210.004 23.092 210.244 22.908C210.484 22.724 210.604 22.492 210.604 22.212C210.604 21.924 210.476 21.712 210.22 21.576C209.964 21.432 209.568 21.292 209.032 21.156C208.544 21.028 208.144 20.9 207.832 20.772C207.528 20.636 207.264 20.44 207.04 20.184C206.824 19.92 206.716 19.576 206.716 19.152C206.716 18.816 206.816 18.508 207.016 18.228C207.216 17.948 207.5 17.728 207.868 17.568C208.236 17.4 208.656 17.316 209.128 17.316C209.856 17.316 210.444 17.5 210.892 17.868C211.34 18.236 211.58 18.74 211.612 19.38H210.52C210.496 19.036 210.356 18.76 210.1 18.552C209.852 18.344 209.516 18.24 209.092 18.24C208.7 18.24 208.388 18.324 208.156 18.492C207.924 18.66 207.808 18.88 207.808 19.152C207.808 19.368 207.876 19.548 208.012 19.692C208.156 19.828 208.332 19.94 208.54 20.028C208.756 20.108 209.052 20.2 209.428 20.304C209.9 20.432 210.284 20.56 210.58 20.688C210.876 20.808 211.128 20.992 211.336 21.24C211.552 21.488 211.664 21.812 211.672 22.212C211.672 22.572 211.572 22.896 211.372 23.184C211.172 23.472 210.888 23.7 210.52 23.868C210.16 24.028 209.744 24.108 209.272 24.108ZM213.777 16.356C213.569 16.356 213.393 16.284 213.249 16.14C213.105 15.996 213.033 15.82 213.033 15.612C213.033 15.404 213.105 15.228 213.249 15.084C213.393 14.94 213.569 14.868 213.777 14.868C213.977 14.868 214.145 14.94 214.281 15.084C214.425 15.228 214.497 15.404 214.497 15.612C214.497 15.82 214.425 15.996 214.281 16.14C214.145 16.284 213.977 16.356 213.777 16.356ZM214.305 17.424V24H213.213V17.424H214.305ZM217.258 15.12V24H216.166V15.12H217.258ZM218.711 20.688C218.711 20.016 218.847 19.428 219.119 18.924C219.391 18.412 219.763 18.016 220.235 17.736C220.715 17.456 221.247 17.316 221.831 17.316C222.407 17.316 222.907 17.44 223.331 17.688C223.755 17.936 224.071 18.248 224.279 18.624V17.424H225.383V24H224.279V22.776C224.063 23.16 223.739 23.48 223.307 23.736C222.883 23.984 222.387 24.108 221.819 24.108C221.235 24.108 220.707 23.964 220.235 23.676C219.763 23.388 219.391 22.984 219.119 22.464C218.847 21.944 218.711 21.352 218.711 20.688ZM224.279 20.7C224.279 20.204 224.179 19.772 223.979 19.404C223.779 19.036 223.507 18.756 223.163 18.564C222.827 18.364 222.455 18.264 222.047 18.264C221.639 18.264 221.267 18.36 220.931 18.552C220.595 18.744 220.327 19.024 220.127 19.392C219.927 19.76 219.827 20.192 219.827 20.688C219.827 21.192 219.927 21.632 220.127 22.008C220.327 22.376 220.595 22.66 220.931 22.86C221.267 23.052 221.639 23.148 222.047 23.148C222.455 23.148 222.827 23.052 223.163 22.86C223.507 22.66 223.779 22.376 223.979 22.008C224.179 21.632 224.279 21.196 224.279 20.7ZM230.433 17.304C231.233 17.304 231.881 17.548 232.377 18.036C232.873 18.516 233.121 19.212 233.121 20.124V24H232.041V20.28C232.041 19.624 231.877 19.124 231.549 18.78C231.221 18.428 230.773 18.252 230.205 18.252C229.629 18.252 229.169 18.432 228.825 18.792C228.489 19.152 228.321 19.676 228.321 20.364V24H227.229V17.424H228.321V18.36C228.537 18.024 228.829 17.764 229.197 17.58C229.573 17.396 229.985 17.304 230.433 17.304Z" fill="#667085"/>
<circle cx="249.005" cy="20" r="3.51667" fill="#3382F7"/>
<path d="M266.071 18.084C266.071 18.78 265.831 19.36 265.351 19.824C264.879 20.28 264.155 20.508 263.179 20.508H261.571V24H260.479V15.636H263.179C264.123 15.636 264.839 15.864 265.327 16.32C265.823 16.776 266.071 17.364 266.071 18.084ZM263.179 19.608C263.787 19.608 264.235 19.476 264.523 19.212C264.811 18.948 264.955 18.572 264.955 18.084C264.955 17.052 264.363 16.536 263.179 16.536H261.571V19.608H263.179ZM273.428 20.46C273.428 20.668 273.416 20.888 273.392 21.12H268.136C268.176 21.768 268.396 22.276 268.796 22.644C269.204 23.004 269.696 23.184 270.272 23.184C270.744 23.184 271.136 23.076 271.448 22.86C271.768 22.636 271.992 22.34 272.12 21.972H273.296C273.12 22.604 272.768 23.12 272.24 23.52C271.712 23.912 271.056 24.108 270.272 24.108C269.648 24.108 269.088 23.968 268.592 23.688C268.104 23.408 267.72 23.012 267.44 22.5C267.16 21.98 267.02 21.38 267.02 20.7C267.02 20.02 267.156 19.424 267.428 18.912C267.7 18.4 268.08 18.008 268.568 17.736C269.064 17.456 269.632 17.316 270.272 17.316C270.896 17.316 271.448 17.452 271.928 17.724C272.408 17.996 272.776 18.372 273.032 18.852C273.296 19.324 273.428 19.86 273.428 20.46ZM272.3 20.232C272.3 19.816 272.208 19.46 272.024 19.164C271.84 18.86 271.588 18.632 271.268 18.48C270.956 18.32 270.608 18.24 270.224 18.24C269.672 18.24 269.2 18.416 268.808 18.768C268.424 19.12 268.204 19.608 268.148 20.232H272.3ZM277.197 24.108C276.693 24.108 276.241 24.024 275.841 23.856C275.441 23.68 275.125 23.44 274.893 23.136C274.661 22.824 274.533 22.468 274.509 22.068H275.637C275.669 22.396 275.821 22.664 276.093 22.872C276.373 23.08 276.737 23.184 277.185 23.184C277.601 23.184 277.929 23.092 278.169 22.908C278.409 22.724 278.529 22.492 278.529 22.212C278.529 21.924 278.401 21.712 278.145 21.576C277.889 21.432 277.493 21.292 276.957 21.156C276.469 21.028 276.069 20.9 275.757 20.772C275.453 20.636 275.189 20.44 274.965 20.184C274.749 19.92 274.641 19.576 274.641 19.152C274.641 18.816 274.741 18.508 274.941 18.228C275.141 17.948 275.425 17.728 275.793 17.568C276.161 17.4 276.581 17.316 277.053 17.316C277.781 17.316 278.369 17.5 278.817 17.868C279.265 18.236 279.505 18.74 279.537 19.38H278.445C278.421 19.036 278.281 18.76 278.025 18.552C277.777 18.344 277.441 18.24 277.017 18.24C276.625 18.24 276.313 18.324 276.081 18.492C275.849 18.66 275.733 18.88 275.733 19.152C275.733 19.368 275.801 19.548 275.937 19.692C276.081 19.828 276.257 19.94 276.465 20.028C276.681 20.108 276.977 20.2 277.353 20.304C277.825 20.432 278.209 20.56 278.505 20.688C278.801 20.808 279.053 20.992 279.261 21.24C279.477 21.488 279.589 21.812 279.597 22.212C279.597 22.572 279.497 22.896 279.297 23.184C279.097 23.472 278.813 23.7 278.445 23.868C278.085 24.028 277.669 24.108 277.197 24.108ZM280.731 20.688C280.731 20.016 280.867 19.428 281.139 18.924C281.411 18.412 281.783 18.016 282.255 17.736C282.735 17.456 283.267 17.316 283.851 17.316C284.427 17.316 284.927 17.44 285.351 17.688C285.775 17.936 286.091 18.248 286.299 18.624V17.424H287.403V24H286.299V22.776C286.083 23.16 285.759 23.48 285.327 23.736C284.903 23.984 284.407 24.108 283.839 24.108C283.255 24.108 282.727 23.964 282.255 23.676C281.783 23.388 281.411 22.984 281.139 22.464C280.867 21.944 280.731 21.352 280.731 20.688ZM286.299 20.7C286.299 20.204 286.199 19.772 285.999 19.404C285.799 19.036 285.527 18.756 285.183 18.564C284.847 18.364 284.475 18.264 284.067 18.264C283.659 18.264 283.287 18.36 282.951 18.552C282.615 18.744 282.347 19.024 282.147 19.392C281.947 19.76 281.847 20.192 281.847 20.688C281.847 21.192 281.947 21.632 282.147 22.008C282.347 22.376 282.615 22.66 282.951 22.86C283.287 23.052 283.659 23.148 284.067 23.148C284.475 23.148 284.847 23.052 285.183 22.86C285.527 22.66 285.799 22.376 285.999 22.008C286.199 21.632 286.299 21.196 286.299 20.7ZM292.452 17.304C293.252 17.304 293.9 17.548 294.396 18.036C294.892 18.516 295.14 19.212 295.14 20.124V24H294.06V20.28C294.06 19.624 293.896 19.124 293.568 18.78C293.24 18.428 292.792 18.252 292.224 18.252C291.648 18.252 291.188 18.432 290.844 18.792C290.508 19.152 290.34 19.676 290.34 20.364V24H289.248V17.424H290.34V18.36C290.556 18.024 290.848 17.764 291.216 17.58C291.592 17.396 292.004 17.304 292.452 17.304ZM296.516 20.688C296.516 20.016 296.652 19.428 296.924 18.924C297.196 18.412 297.568 18.016 298.04 17.736C298.52 17.456 299.052 17.316 299.636 17.316C300.212 17.316 300.712 17.44 301.136 17.688C301.56 17.936 301.876 18.248 302.084 18.624V17.424H303.188V24H302.084V22.776C301.868 23.16 301.544 23.48 301.112 23.736C300.688 23.984 300.192 24.108 299.624 24.108C299.04 24.108 298.512 23.964 298.04 23.676C297.568 23.388 297.196 22.984 296.924 22.464C296.652 21.944 296.516 21.352 296.516 20.688ZM302.084 20.7C302.084 20.204 301.984 19.772 301.784 19.404C301.584 19.036 301.312 18.756 300.968 18.564C300.632 18.364 300.26 18.264 299.852 18.264C299.444 18.264 299.072 18.36 298.736 18.552C298.4 18.744 298.132 19.024 297.932 19.392C297.732 19.76 297.632 20.192 297.632 20.688C297.632 21.192 297.732 21.632 297.932 22.008C298.132 22.376 298.4 22.66 298.736 22.86C299.072 23.052 299.444 23.148 299.852 23.148C300.26 23.148 300.632 23.052 300.968 22.86C301.312 22.66 301.584 22.376 301.784 22.008C301.984 21.632 302.084 21.196 302.084 20.7ZM308.237 17.304C309.037 17.304 309.685 17.548 310.181 18.036C310.677 18.516 310.925 19.212 310.925 20.124V24H309.845V20.28C309.845 19.624 309.681 19.124 309.353 18.78C309.025 18.428 308.577 18.252 308.009 18.252C307.433 18.252 306.973 18.432 306.629 18.792C306.293 19.152 306.125 19.676 306.125 20.364V24H305.033V17.424H306.125V18.36C306.341 18.024 306.633 17.764 307.001 17.58C307.377 17.396 307.789 17.304 308.237 17.304Z" fill="#667085"/>
<line x1="11.4396" y1="38.2313" x2="312.115" y2="38.2313" stroke="#F2F4F7" stroke-width="0.879167" stroke-linecap="round"/>
<line x1="11.4396" y1="72.0378" x2="312.115" y2="72.0378" stroke="#F2F4F7" stroke-width="0.879167" stroke-linecap="round"/>
<line x1="11.4396" y1="103.646" x2="312.115" y2="103.646" stroke="#F2F4F7" stroke-width="0.879167" stroke-linecap="round"/>
<line x1="11.4396" y1="135.255" x2="312.115" y2="135.255" stroke="#F2F4F7" stroke-width="0.879167" stroke-linecap="round"/>
<line x1="11.4396" y1="166.864" x2="312.115" y2="166.864" stroke="#F2F4F7" stroke-width="0.879167" stroke-linecap="round"/>
<line x1="11.4396" y1="198.472" x2="312.115" y2="198.472" stroke="#F2F4F7" stroke-width="0.879167" stroke-linecap="round"/>
<path d="M22.8562 210.415V215.565C22.8562 216.138 22.6795 216.598 22.3262 216.945C21.9728 217.285 21.5062 217.455 20.9262 217.455C20.3395 217.455 19.8695 217.281 19.5162 216.935C19.1628 216.581 18.9862 216.101 18.9862 215.495H19.8962C19.9028 215.835 19.9895 216.111 20.1562 216.325C20.3295 216.538 20.5862 216.645 20.9262 216.645C21.2662 216.645 21.5195 216.545 21.6862 216.345C21.8528 216.138 21.9362 215.878 21.9362 215.565V210.415H22.8562ZM24.3089 214.625C24.3089 214.065 24.4222 213.575 24.6489 213.155C24.8756 212.728 25.1856 212.398 25.5789 212.165C25.9789 211.931 26.4222 211.815 26.9089 211.815C27.3889 211.815 27.8056 211.918 28.1589 212.125C28.5122 212.331 28.7756 212.591 28.9489 212.905V211.905H29.8689V217.385H28.9489V216.365C28.7689 216.685 28.4989 216.951 28.1389 217.165C27.7856 217.371 27.3722 217.475 26.8989 217.475C26.4122 217.475 25.9722 217.355 25.5789 217.115C25.1856 216.875 24.8756 216.538 24.6489 216.105C24.4222 215.671 24.3089 215.178 24.3089 214.625ZM28.9489 214.635C28.9489 214.221 28.8656 213.861 28.6989 213.555C28.5322 213.248 28.3056 213.015 28.0189 212.855C27.7389 212.688 27.4289 212.605 27.0889 212.605C26.7489 212.605 26.4389 212.685 26.1589 212.845C25.8789 213.005 25.6556 213.238 25.4889 213.545C25.3222 213.851 25.2389 214.211 25.2389 214.625C25.2389 215.045 25.3222 215.411 25.4889 215.725C25.6556 216.031 25.8789 216.268 26.1589 216.435C26.4389 216.595 26.7489 216.675 27.0889 216.675C27.4289 216.675 27.7389 216.595 28.0189 216.435C28.3056 216.268 28.5322 216.031 28.6989 215.725C28.8656 215.411 28.9489 215.048 28.9489 214.635ZM34.0767 211.805C34.7434 211.805 35.2834 212.008 35.6967 212.415C36.1101 212.815 36.3167 213.395 36.3167 214.155V217.385H35.4167V214.285C35.4167 213.738 35.2801 213.321 35.0067 213.035C34.7334 212.741 34.3601 212.595 33.8867 212.595C33.4067 212.595 33.0234 212.745 32.7367 213.045C32.4567 213.345 32.3167 213.781 32.3167 214.355V217.385H31.4067V211.905H32.3167V212.685C32.4967 212.405 32.7401 212.188 33.0467 212.035C33.3601 211.881 33.7034 211.805 34.0767 211.805Z" fill="#667085"/>
<path d="M71.1857 210.465V217.385H70.2757V212.225L67.9757 217.385H67.3357L65.0257 212.215V217.385H64.1157V210.465H65.0957L67.6557 216.185L70.2157 210.465H71.1857ZM72.389 214.625C72.389 214.065 72.5023 213.575 72.729 213.155C72.9557 212.728 73.2657 212.398 73.659 212.165C74.059 211.931 74.5023 211.815 74.989 211.815C75.469 211.815 75.8857 211.918 76.239 212.125C76.5923 212.331 76.8557 212.591 77.029 212.905V211.905H77.949V217.385H77.029V216.365C76.849 216.685 76.579 216.951 76.219 217.165C75.8657 217.371 75.4523 217.475 74.979 217.475C74.4923 217.475 74.0523 217.355 73.659 217.115C73.2657 216.875 72.9557 216.538 72.729 216.105C72.5023 215.671 72.389 215.178 72.389 214.625ZM77.029 214.635C77.029 214.221 76.9457 213.861 76.779 213.555C76.6123 213.248 76.3857 213.015 76.099 212.855C75.819 212.688 75.509 212.605 75.169 212.605C74.829 212.605 74.519 212.685 74.239 212.845C73.959 213.005 73.7357 213.238 73.569 213.545C73.4023 213.851 73.319 214.211 73.319 214.625C73.319 215.045 73.4023 215.411 73.569 215.725C73.7357 216.031 73.959 216.268 74.239 216.435C74.519 216.595 74.829 216.675 75.169 216.675C75.509 216.675 75.819 216.595 76.099 216.435C76.3857 216.268 76.6123 216.031 76.779 215.725C76.9457 215.411 77.029 215.048 77.029 214.635ZM80.3968 212.795C80.5568 212.481 80.7835 212.238 81.0768 212.065C81.3768 211.891 81.7401 211.805 82.1668 211.805V212.745H81.9268C80.9068 212.745 80.3968 213.298 80.3968 214.405V217.385H79.4868V211.905H80.3968V212.795Z" fill="#667085"/>
<path d="M116.697 210.465V217.385H115.787V212.225L113.487 217.385H112.847L110.537 212.215V217.385H109.627V210.465H110.607L113.167 216.185L115.727 210.465H116.697ZM117.901 214.625C117.901 214.065 118.014 213.575 118.241 213.155C118.467 212.728 118.777 212.398 119.171 212.165C119.571 211.931 120.014 211.815 120.501 211.815C120.981 211.815 121.397 211.918 121.751 212.125C122.104 212.331 122.367 212.591 122.541 212.905V211.905H123.461V217.385H122.541V216.365C122.361 216.685 122.091 216.951 121.731 217.165C121.377 217.371 120.964 217.475 120.491 217.475C120.004 217.475 119.564 217.355 119.171 217.115C118.777 216.875 118.467 216.538 118.241 216.105C118.014 215.671 117.901 215.178 117.901 214.625ZM122.541 214.635C122.541 214.221 122.457 213.861 122.291 213.555C122.124 213.248 121.897 213.015 121.611 212.855C121.331 212.688 121.021 212.605 120.681 212.605C120.341 212.605 120.031 212.685 119.751 212.845C119.471 213.005 119.247 213.238 119.081 213.545C118.914 213.851 118.831 214.211 118.831 214.625C118.831 215.045 118.914 215.411 119.081 215.725C119.247 216.031 119.471 216.268 119.751 216.435C120.031 216.595 120.341 216.675 120.681 216.675C121.021 216.675 121.331 216.595 121.611 216.435C121.897 216.268 122.124 216.031 122.291 215.725C122.457 215.411 122.541 215.048 122.541 214.635ZM129.719 211.905L126.419 219.965H125.479L126.559 217.325L124.349 211.905H125.359L127.079 216.345L128.779 211.905H129.719Z" fill="#667085"/>
<path d="M160.397 210.415V215.565C160.397 216.138 160.221 216.598 159.867 216.945C159.514 217.285 159.047 217.455 158.467 217.455C157.881 217.455 157.411 217.281 157.057 216.935C156.704 216.581 156.527 216.101 156.527 215.495H157.437C157.444 215.835 157.531 216.111 157.697 216.325C157.871 216.538 158.127 216.645 158.467 216.645C158.807 216.645 159.061 216.545 159.227 216.345C159.394 216.138 159.477 215.878 159.477 215.565V210.415H160.397ZM167.05 211.905V217.385H166.14V216.575C165.967 216.855 165.723 217.075 165.41 217.235C165.103 217.388 164.763 217.465 164.39 217.465C163.963 217.465 163.58 217.378 163.24 217.205C162.9 217.025 162.63 216.758 162.43 216.405C162.237 216.051 162.14 215.621 162.14 215.115V211.905H163.04V214.995C163.04 215.535 163.177 215.951 163.45 216.245C163.723 216.531 164.097 216.675 164.57 216.675C165.057 216.675 165.44 216.525 165.72 216.225C166 215.925 166.14 215.488 166.14 214.915V211.905H167.05ZM169.496 209.985V217.385H168.586V209.985H169.496Z" fill="#667085"/>
<path d="M198.843 217.455C198.383 217.455 197.97 217.375 197.603 217.215C197.243 217.048 196.96 216.821 196.753 216.535C196.547 216.241 196.44 215.905 196.433 215.525H197.403C197.437 215.851 197.57 216.128 197.803 216.355C198.043 216.575 198.39 216.685 198.843 216.685C199.277 216.685 199.617 216.578 199.863 216.365C200.117 216.145 200.243 215.865 200.243 215.525C200.243 215.258 200.17 215.041 200.023 214.875C199.877 214.708 199.693 214.581 199.473 214.495C199.253 214.408 198.957 214.315 198.583 214.215C198.123 214.095 197.753 213.975 197.473 213.855C197.2 213.735 196.963 213.548 196.763 213.295C196.57 213.035 196.473 212.688 196.473 212.255C196.473 211.875 196.57 211.538 196.763 211.245C196.957 210.951 197.227 210.725 197.573 210.565C197.927 210.405 198.33 210.325 198.783 210.325C199.437 210.325 199.97 210.488 200.383 210.815C200.803 211.141 201.04 211.575 201.093 212.115H200.093C200.06 211.848 199.92 211.615 199.673 211.415C199.427 211.208 199.1 211.105 198.693 211.105C198.313 211.105 198.003 211.205 197.763 211.405C197.523 211.598 197.403 211.871 197.403 212.225C197.403 212.478 197.473 212.685 197.613 212.845C197.76 213.005 197.937 213.128 198.143 213.215C198.357 213.295 198.653 213.388 199.033 213.495C199.493 213.621 199.863 213.748 200.143 213.875C200.423 213.995 200.663 214.185 200.863 214.445C201.063 214.698 201.163 215.045 201.163 215.485C201.163 215.825 201.073 216.145 200.893 216.445C200.713 216.745 200.447 216.988 200.093 217.175C199.74 217.361 199.323 217.455 198.843 217.455ZM207.502 214.435C207.502 214.608 207.492 214.791 207.472 214.985H203.092C203.126 215.525 203.309 215.948 203.642 216.255C203.982 216.555 204.392 216.705 204.872 216.705C205.266 216.705 205.592 216.615 205.852 216.435C206.119 216.248 206.306 216.001 206.412 215.695H207.392C207.246 216.221 206.952 216.651 206.512 216.985C206.072 217.311 205.526 217.475 204.872 217.475C204.352 217.475 203.886 217.358 203.472 217.125C203.066 216.891 202.746 216.561 202.512 216.135C202.279 215.701 202.162 215.201 202.162 214.635C202.162 214.068 202.276 213.571 202.502 213.145C202.729 212.718 203.046 212.391 203.452 212.165C203.866 211.931 204.339 211.815 204.872 211.815C205.392 211.815 205.852 211.928 206.252 212.155C206.652 212.381 206.959 212.695 207.172 213.095C207.392 213.488 207.502 213.935 207.502 214.435ZM206.562 214.245C206.562 213.898 206.486 213.601 206.332 213.355C206.179 213.101 205.969 212.911 205.702 212.785C205.442 212.651 205.152 212.585 204.832 212.585C204.372 212.585 203.979 212.731 203.652 213.025C203.332 213.318 203.149 213.725 203.102 214.245H206.562ZM209.614 212.915C209.794 212.601 210.06 212.341 210.414 212.135C210.774 211.921 211.19 211.815 211.664 211.815C212.15 211.815 212.59 211.931 212.984 212.165C213.384 212.398 213.697 212.728 213.924 213.155C214.15 213.575 214.264 214.065 214.264 214.625C214.264 215.178 214.15 215.671 213.924 216.105C213.697 216.538 213.384 216.875 212.984 217.115C212.59 217.355 212.15 217.475 211.664 217.475C211.197 217.475 210.784 217.371 210.424 217.165C210.07 216.951 209.8 216.688 209.614 216.375V219.985H208.704V211.905H209.614V212.915ZM213.334 214.625C213.334 214.211 213.25 213.851 213.084 213.545C212.917 213.238 212.69 213.005 212.404 212.845C212.124 212.685 211.814 212.605 211.474 212.605C211.14 212.605 210.83 212.688 210.544 212.855C210.264 213.015 210.037 213.251 209.864 213.565C209.697 213.871 209.614 214.228 209.614 214.635C209.614 215.048 209.697 215.411 209.864 215.725C210.037 216.031 210.264 216.268 210.544 216.435C210.83 216.595 211.14 216.675 211.474 216.675C211.814 216.675 212.124 216.595 212.404 216.435C212.69 216.268 212.917 216.031 213.084 215.725C213.25 215.411 213.334 215.045 213.334 214.625Z" fill="#667085"/>
<path d="M247.322 217.385H246.412L242.752 211.835V217.385H241.842V210.405H242.752L246.412 215.945V210.405H247.322V217.385ZM251.264 217.475C250.75 217.475 250.284 217.358 249.864 217.125C249.45 216.891 249.124 216.561 248.884 216.135C248.65 215.701 248.534 215.201 248.534 214.635C248.534 214.075 248.654 213.581 248.894 213.155C249.14 212.721 249.474 212.391 249.894 212.165C250.314 211.931 250.784 211.815 251.304 211.815C251.824 211.815 252.294 211.931 252.714 212.165C253.134 212.391 253.464 212.718 253.704 213.145C253.95 213.571 254.074 214.068 254.074 214.635C254.074 215.201 253.947 215.701 253.694 216.135C253.447 216.561 253.11 216.891 252.684 217.125C252.257 217.358 251.784 217.475 251.264 217.475ZM251.264 216.675C251.59 216.675 251.897 216.598 252.184 216.445C252.47 216.291 252.7 216.061 252.874 215.755C253.054 215.448 253.144 215.075 253.144 214.635C253.144 214.195 253.057 213.821 252.884 213.515C252.71 213.208 252.484 212.981 252.204 212.835C251.924 212.681 251.62 212.605 251.294 212.605C250.96 212.605 250.654 212.681 250.374 212.835C250.1 212.981 249.88 213.208 249.714 213.515C249.547 213.821 249.464 214.195 249.464 214.635C249.464 215.081 249.544 215.458 249.704 215.765C249.87 216.071 250.09 216.301 250.364 216.455C250.637 216.601 250.937 216.675 251.264 216.675ZM257.31 216.545L259.01 211.905H259.98L257.83 217.385H256.77L254.62 211.905H255.6L257.31 216.545Z" fill="#667085"/>
<path d="M289.116 210.415C289.876 210.415 290.532 210.558 291.086 210.845C291.646 211.125 292.072 211.528 292.366 212.055C292.666 212.581 292.816 213.201 292.816 213.915C292.816 214.628 292.666 215.248 292.366 215.775C292.072 216.295 291.646 216.695 291.086 216.975C290.532 217.248 289.876 217.385 289.116 217.385H286.946V210.415H289.116ZM289.116 216.635C290.016 216.635 290.702 216.398 291.176 215.925C291.649 215.445 291.886 214.775 291.886 213.915C291.886 213.048 291.646 212.371 291.166 211.885C290.692 211.398 290.009 211.155 289.116 211.155H287.856V216.635H289.116ZM299.016 214.435C299.016 214.608 299.006 214.791 298.986 214.985H294.606C294.639 215.525 294.823 215.948 295.156 216.255C295.496 216.555 295.906 216.705 296.386 216.705C296.779 216.705 297.106 216.615 297.366 216.435C297.633 216.248 297.819 216.001 297.926 215.695H298.906C298.759 216.221 298.466 216.651 298.026 216.985C297.586 217.311 297.039 217.475 296.386 217.475C295.866 217.475 295.399 217.358 294.986 217.125C294.579 216.891 294.259 216.561 294.026 216.135C293.793 215.701 293.676 215.201 293.676 214.635C293.676 214.068 293.789 213.571 294.016 213.145C294.243 212.718 294.559 212.391 294.966 212.165C295.379 211.931 295.853 211.815 296.386 211.815C296.906 211.815 297.366 211.928 297.766 212.155C298.166 212.381 298.473 212.695 298.686 213.095C298.906 213.488 299.016 213.935 299.016 214.435ZM298.076 214.245C298.076 213.898 297.999 213.601 297.846 213.355C297.693 213.101 297.483 212.911 297.216 212.785C296.956 212.651 296.666 212.585 296.346 212.585C295.886 212.585 295.493 212.731 295.166 213.025C294.846 213.318 294.663 213.725 294.616 214.245H298.076ZM299.877 214.635C299.877 214.068 299.991 213.575 300.217 213.155C300.444 212.728 300.757 212.398 301.157 212.165C301.564 211.931 302.027 211.815 302.547 211.815C303.221 211.815 303.774 211.978 304.207 212.305C304.647 212.631 304.937 213.085 305.077 213.665H304.097C304.004 213.331 303.821 213.068 303.547 212.875C303.281 212.681 302.947 212.585 302.547 212.585C302.027 212.585 301.607 212.765 301.287 213.125C300.967 213.478 300.807 213.981 300.807 214.635C300.807 215.295 300.967 215.805 301.287 216.165C301.607 216.525 302.027 216.705 302.547 216.705C302.947 216.705 303.281 216.611 303.547 216.425C303.814 216.238 303.997 215.971 304.097 215.625H305.077C304.931 216.185 304.637 216.635 304.197 216.975C303.757 217.308 303.207 217.475 302.547 217.475C302.027 217.475 301.564 217.358 301.157 217.125C300.757 216.891 300.444 216.561 300.217 216.135C299.991 215.708 299.877 215.208 299.877 214.635Z" fill="#667085"/>
<g style="mix-blend-mode:multiply" opacity="0.1">
<path d="M17.8442 99.2176L11 102.128V199.136H313V66.7705L306.584 71.6048H299.739L296.531 76.1315H292.254C291.113 76.886 288.746 78.3948 288.404 78.3948C288.061 78.3948 285.837 79.3002 284.768 79.7528L275.571 81.1109L270.224 82.9215L261.669 81.1109L257.177 79.7528L250.761 82.9215H244.13L238.569 79.7528C236.431 79.3002 232.067 78.3948 231.725 78.3948C231.383 78.3948 228.588 77.4895 227.234 77.0368H223.812L215.684 78.3948L208.626 79.7528L205.418 82.9215L195.793 84.2795L190.874 85.6375L185.313 87.9009L179.966 93.3329H177.613L171.197 91.9749L164.994 87.9009L159.647 85.6375H156.439L150.878 84.2795L142.965 85.6375H135.479L127.993 87.9009L120.507 90.6169L114.946 93.3329L108.958 94.6909L100.83 93.3329L94.4136 94.6909L87.9972 96.0489L82.0085 94.6909L73.881 97.8596L67.0368 96.0489L60.1926 97.8596H53.5623L46.5042 99.2176H39.2323L31.9603 100.576L24.9023 97.8596L17.8442 99.2176Z" fill="url(#paint0_linear_1112_23060)"/>
</g>
<path d="M11 102.128L17.8442 99.2176L24.9023 97.8596L31.9603 100.576L39.2323 99.2176H46.5042L53.5623 97.8596H60.1926L67.0368 96.0489L73.881 97.8596L82.0085 94.6909L87.9972 96.0489L94.4136 94.6909L100.83 93.3329L108.958 94.6909L114.946 93.3329L120.507 90.6169L127.993 87.9009L135.479 85.6375H142.965L150.878 84.2795L156.439 85.6375H159.647L164.994 87.9009L171.197 91.9749L177.613 93.3329H179.966L185.313 87.9009L190.874 85.6375L195.793 84.2795L205.418 82.9215L208.626 79.7528L215.684 78.3948L223.812 77.0368H227.234C228.588 77.4895 231.383 78.3948 231.725 78.3948C232.067 78.3948 236.431 79.3002 238.569 79.7528L244.13 82.9215H250.761L257.177 79.7528L261.669 81.1109L270.224 82.9215L275.571 81.1109L284.768 79.7528C285.837 79.3002 288.061 78.3948 288.404 78.3948C288.746 78.3948 291.113 76.886 292.254 76.1315H296.531L299.739 71.6048H306.584L313 66.7705" stroke="#FEB624" stroke-width="1.75833" stroke-linecap="round" stroke-linejoin="round"/>
<path d="M11 137.343L17.8442 135.489L24.9023 134.624L31.9603 136.354L39.2323 135.489H46.5043L53.5623 134.624H60.1926L67.0368 133.471L73.881 134.624L82.0085 132.606L87.9972 133.471L94.4136 132.606L100.83 131.741L108.958 132.606L114.946 131.741L120.507 130.011L127.993 128.281L135.479 126.839H142.965L150.878 125.974L156.439 126.839H159.647L164.994 128.281L171.197 130.876L177.613 131.741H179.966L185.313 128.281L190.874 126.839L195.793 125.974L205.418 125.109L208.626 123.09L215.684 122.225L223.812 121.36H227.234C228.588 121.649 231.383 122.225 231.725 122.225C232.067 122.225 236.431 122.802 238.569 123.09L244.13 125.109H250.761L257.177 123.09L261.669 123.955L270.224 125.109L275.571 123.955L284.768 123.09C285.837 122.802 288.061 122.225 288.404 122.225C288.746 122.225 291.113 121.264 292.254 120.784H296.531L299.739 117.9H306.584L313 114.821" stroke="#3382F7" stroke-width="1.75833" stroke-linecap="round" stroke-linejoin="round"/>
<defs>
<linearGradient id="paint0_linear_1112_23060" x1="162" y1="66.7705" x2="162" y2="193.243" gradientUnits="userSpaceOnUse">
<stop stop-color="#3382F7"/>
<stop offset="1" stop-color="#3382F7" stop-opacity="0"/>
</linearGradient>
</defs>
</svg>
