<svg width="38" height="35" viewBox="0 0 38 35" fill="none" xmlns="http://www.w3.org/2000/svg">
<path d="M8.91113 35.0001H18.9581L19.0523 6.52142L18.4491 5.05129L17.1956 0.556152H10.1835L8.91113 5.05129V35.0001Z" fill="#B3D7E2"/>
<path d="M10.6645 0.556152H5.65988L2.1067 16.5577L1.15479 22.4288L6.24423 22.6172L6.89455 17.7734L8.16691 9.44278L9.38272 9.41451L10.6645 0.556152Z" fill="#B3D7E2"/>
<path d="M0.478704 18.4623L0 22.3438L7.35228 23.2503L7.83098 19.3688L0.478704 18.4623Z" fill="#B3D7E2"/>
<path d="M15.1413 9.26367H10.2969V14.8708H15.1413V9.26367Z" fill="#E62D4E"/>
<path d="M15.1413 9.26367L12.7191 12.0625L10.2969 9.26367H15.1413Z" fill="#EB5771"/>
<path d="M6.70597 19.2433L1.81445 18.6401L1.89928 17.792L6.7531 18.8003L6.70597 19.2433Z" fill="#72BDC4"/>
<path d="M29.0054 35.0001H18.9585L19.0527 6.52142L21.1356 0.556152H27.7236L29.0054 5.05129V35.0001Z" fill="#B3D7E2"/>
<path d="M24.1584 23.0105L21.7168 29.9238L23.0232 30.3851L25.4648 23.4718L24.1584 23.0105Z" fill="#DB2643"/>
<path d="M25.5651 23.2601L24.1865 23.3979L25.1364 32.8969L26.515 32.759L25.5651 23.2601Z" fill="#E62D4E"/>
<path d="M27.2617 0.556152H32.2569L35.8101 16.5577L36.762 22.4288L31.6726 22.6172L31.0223 17.7734L29.7593 9.44278L28.5341 9.41451L27.2617 0.556152Z" fill="#B3D7E2"/>
<path d="M37.4405 18.475L30.0884 19.3828L30.5678 23.2642L37.9199 22.3564L37.4405 18.475Z" fill="#B3D7E2"/>
<path d="M19.3634 5.75781H18.8545V34.9999H19.3634V5.75781Z" fill="#E62D4E"/>
<path d="M29.2783 22.4287H8.81689V23.814H29.2783V22.4287Z" fill="#E62D4E"/>
<path d="M26.1964 21.7598H23.2559V24.4361H26.1964V21.7598Z" fill="#E62D4E"/>
<path d="M20.9943 9.98926H18.77V10.4322H20.9943V9.98926Z" fill="#E62D4E"/>
<path d="M21.2206 10.2061C21.2206 10.6396 20.8624 10.9978 20.4289 10.9978C19.9954 10.9978 19.6372 10.6396 19.6372 10.2061C19.6372 9.77265 19.9954 9.41455 20.4289 9.41455C20.8624 9.41455 21.2206 9.76323 21.2206 10.2061Z" fill="#E62D4E"/>
<path d="M20.9943 18.4141H18.77V18.8475H20.9943V18.4141Z" fill="#E62D4E"/>
<path d="M21.2206 18.631C21.2206 19.0739 20.8624 19.4225 20.4289 19.4225C19.9954 19.4225 19.6372 19.0739 19.6372 18.631C19.6372 18.188 19.9954 17.8394 20.4289 17.8394C20.8624 17.8394 21.2206 18.1975 21.2206 18.631Z" fill="#E62D4E"/>
<path d="M20.9943 25.8589H18.77V26.3018H20.9943V25.8589Z" fill="#E62D4E"/>
<path d="M21.2206 26.0851C21.2206 26.5185 20.8624 26.8766 20.4289 26.8766C19.9954 26.8766 19.6372 26.5185 19.6372 26.0851C19.6372 25.6516 19.9954 25.2935 20.4289 25.2935C20.8624 25.2935 21.2206 25.6516 21.2206 26.0851Z" fill="#E62D4E"/>
<path d="M27.6198 9.26367H22.7754V14.8708H27.6198V9.26367Z" fill="#E62D4E"/>
<path d="M22.7754 9.26367L25.1976 12.0625L27.6198 9.26367H22.7754Z" fill="#EB5771"/>
<path d="M31.2203 19.2433L36.1024 18.6401L36.0081 17.792L31.1543 18.8003L31.2203 19.2433Z" fill="#72BDC4"/>
<path d="M19.2129 5.77679L21.1261 0L24.8867 0.556015L19.2129 9.59343V5.77679Z" fill="#E62D4E"/>
<path d="M18.9585 5.75794L17.0358 0L13.2847 0.556015L18.9585 9.59343V5.75794Z" fill="#E62D4E"/>
</svg>
