<svg width="39" height="34" viewBox="0 0 39 34" fill="none" xmlns="http://www.w3.org/2000/svg">
<path d="M14.7256 0.0332031C13.098 3.50938 19.1654 6.07777 19.1654 6.07777V0.0332031H14.7256Z" fill="#F14950"/>
<path d="M23.5942 0.0332031C25.2107 3.50938 19.1543 6.07777 19.1543 6.07777V0.0332031H23.5942Z" fill="#F14950"/>
<path d="M7.7725 1.97076L0 5.9119L2.46905 13.7499L7.78357 12.1447V12.034C7.78357 11.104 8.06038 4.48379 13.9728 3.74206C13.3528 2.82319 12.9542 1.73827 12.8988 0.553711L7.78357 1.97076H7.7725Z" fill="#F46D73"/>
<path d="M14.7149 0.232471C14.7149 0.166047 14.7149 0.099627 14.7149 0.0332031L12.877 0.542452C12.9323 1.72701 13.3309 2.81193 13.9509 3.7308C15.0803 5.40246 16.9736 6.5206 19.1547 6.5206V4.6718C16.6968 4.6718 14.7149 2.67908 14.7149 0.232471Z" fill="#F46D73"/>
<path d="M25.3885 0.509248L23.5837 0C23.5837 0.0774945 23.5837 0.154988 23.5837 0.232482C23.5837 2.69016 21.6019 4.67181 19.1328 4.67181V6.52061C21.3029 6.52061 23.2073 5.41355 24.3366 3.73081C24.9677 2.80088 25.3553 1.70488 25.4106 0.509248H25.3663H25.3885Z" fill="#F46D73"/>
<path d="M24.358 3.74219C23.2287 5.41385 21.3243 6.53199 19.1542 6.53199C16.9841 6.53199 15.0798 5.42493 13.9504 3.74219C8.03802 4.47285 7.7723 11.1042 7.76123 12.0341V32.9687L30.3812 10.3514C30.0047 8.04867 28.7204 4.28465 24.358 3.74219Z" fill="#FAF15B"/>
<path d="M30.3812 10.3511L7.76123 32.9684V33.0348H30.5362V12.0338C30.5362 11.7903 30.5141 11.1592 30.3812 10.3511Z" fill="#F9ED32"/>
<path d="M30.3809 10.3511C30.5137 11.1593 30.5359 11.7903 30.5359 12.0338V12.1445L35.8504 13.7498L38.3194 5.91177L35.9943 4.73828L30.3809 10.3511Z" fill="#F14950"/>
<path d="M30.3815 10.3511L35.995 4.73827L30.5365 1.97061L25.3881 0.509277L25.4324 0.52035C25.377 1.71598 24.9784 2.81197 24.3584 3.74191C28.7318 4.28437 30.0051 8.04839 30.3815 10.3511Z" fill="#F46D73"/>
</svg>
