<svg width="40" height="41" viewBox="0 0 40 41" fill="none" xmlns="http://www.w3.org/2000/svg">
<path d="M32.1396 3.44922V15.561L32.2976 15.7584L37.9856 10.0712L32.1396 3.44922Z" fill="#F8E1D8"/>
<path d="M32.2974 15.7585L34.2328 18.1809L39.9998 12.3883L37.9853 10.0713L32.2974 15.7585Z" fill="#F6DACE"/>
<path d="M7.84717 40.2585H19.9998H32.1393V15.9033L7.84717 40.1927V40.2585Z" fill="#F6DACE"/>
<path d="M32.1393 3.44906L32.0208 3.43589L26.1749 2.646L19.9998 3.44906L13.8248 2.646L7.84717 3.44906V40.1924L32.1393 15.9031V15.5608V3.44906Z" fill="#F8E1D8"/>
<path d="M24.9506 0.539763C24.9506 0.539763 22.7386 0.381784 22.6728 0.381784C22.6069 0.381784 19.9605 0 19.9605 0C19.9605 0 17.3008 0.381784 17.2482 0.381784C17.1955 0.381784 14.9704 0.539763 14.9704 0.539763L14.707 1.18485L14.9967 1.77727C15.0099 3.23858 19.9605 3.50188 19.9605 3.50188C19.9605 3.50188 24.8979 3.23858 24.9242 1.77727L25.2139 1.18485L24.9506 0.539763Z" fill="#F4D1C2"/>
<path d="M25.3977 0.829392C25.3451 0.513433 25.0291 0.276464 24.4103 0.171144C23.3174 0 19.9731 0 19.9731 0V0.710907C19.9731 0.710907 23.3174 0.710907 24.4103 0.803062C24.5551 0.803062 24.7921 0.868887 24.9237 1.07953C25.1476 1.44814 23.5939 2.76464 19.9995 3.35706C19.9995 3.35706 21.9481 3.6072 22.1588 4.10746C22.6328 5.26598 23.1726 8.25443 23.1726 8.25443C23.9889 6.09537 25.8981 2.67249 25.8981 2.67249C25.8981 2.67249 25.5557 1.73777 25.3977 0.829392Z" fill="#FBF0EB"/>
<path d="M14.6019 0.829392C14.6546 0.513433 14.9706 0.276464 15.5894 0.171144C16.6822 0 20.0265 0 20.0265 0V0.710907C20.0265 0.710907 16.6822 0.710907 15.5894 0.803062C15.4446 0.803062 15.2076 0.868887 15.0759 1.07953C14.8389 1.44814 16.4057 2.76464 20.0002 3.35706C20.0002 3.35706 18.0384 3.6072 17.8409 4.10746C17.3669 5.26598 16.8402 8.25443 16.8402 8.25443C16.0239 6.09537 14.1147 2.67249 14.1147 2.67249C14.1147 2.67249 14.4571 1.73777 14.6151 0.829392H14.6019Z" fill="#FBF0EB"/>
<path d="M7.84723 3.44922L0 12.3882L5.75375 18.1808L13.1797 8.89951L7.84723 3.44922Z" fill="#F8E1D8"/>
<path d="M30.2042 13.481H24.2529V16.2719H30.2042V13.481Z" fill="#FBF0EB"/>
<path d="M20.5928 3.35693H19.4736V40.2451H20.5928V3.35693Z" fill="#FBF0EB"/>
<path d="M20.3823 4.12055C20.3823 4.33119 20.2111 4.50234 20.0005 4.50234C19.7898 4.50234 19.6187 4.33119 19.6187 4.12055C19.6187 3.90991 19.7898 3.73877 20.0005 3.73877C20.2111 3.73877 20.3823 3.90991 20.3823 4.12055Z" fill="#F4D1C2"/>
<path d="M20.4077 12.3618C20.4077 12.5724 20.2365 12.7435 20.0259 12.7435C19.8152 12.7435 19.644 12.5724 19.644 12.3618C19.644 12.1511 19.8152 11.98 20.0259 11.98C20.2365 11.98 20.4077 12.1511 20.4077 12.3618Z" fill="#F4D1C2"/>
<path d="M20.435 20.5898C20.435 20.8004 20.2639 20.9716 20.0532 20.9716C19.8425 20.9716 19.6714 20.8004 19.6714 20.5898C19.6714 20.3792 19.8425 20.208 20.0532 20.208C20.2639 20.208 20.435 20.3792 20.435 20.5898Z" fill="#F4D1C2"/>
<path d="M20.4609 28.8178C20.4609 29.0285 20.2898 29.1996 20.0791 29.1996C19.8684 29.1996 19.6973 29.0285 19.6973 28.8178C19.6973 28.6072 19.8684 28.436 20.0791 28.436C20.2898 28.436 20.4609 28.6072 20.4609 28.8178Z" fill="#F4D1C2"/>
<path d="M20.5 37.059C20.5 37.2697 20.3288 37.4408 20.1182 37.4408C19.9075 37.4408 19.7363 37.2697 19.7363 37.059C19.7363 36.8484 19.9075 36.6772 20.1182 36.6772C20.3288 36.6772 20.5 36.8484 20.5 37.059Z" fill="#F4D1C2"/>
</svg>
