<svg width="26" height="39" viewBox="0 0 26 39" fill="none" xmlns="http://www.w3.org/2000/svg">
<path d="M0.0131836 39.0001H12.5157H25.0181V35.3662H0.0131836V39.0001Z" fill="#37BDDE"/>
<path d="M4.61963 30.7601H25.0177V26.1538H9.22647L4.61963 30.7601Z" fill="#37BDDE"/>
<path d="M0.0131836 35.3661H25.0181V30.7598H4.62003L0.0131836 35.3661Z" fill="#E6E6E6"/>
<path d="M25.0181 12.322V10.3516L23.0474 12.322H25.0181Z" fill="#37BDDE"/>
<path d="M13.8335 21.5472H25.0179V16.9409H18.4403L13.8335 21.5472Z" fill="#37BDDE"/>
<path d="M18.4399 16.9409H25.0175V12.3218H23.0467L18.4399 16.9409Z" fill="#E6E6E6"/>
<path d="M9.22656 26.1537H25.0178V21.5474H13.8334L9.22656 26.1537Z" fill="#E6E6E6"/>
<path d="M15.4077 16.9408H18.4406L23.0474 12.3345H18.8373C17.9159 14.3945 16.7386 15.9811 15.4077 16.9408Z" fill="#F1F2F2"/>
<path d="M20.8718 3.10938C20.795 4.72158 20.603 6.26982 20.2959 7.71568H22.7273C22.305 6.66647 21.9595 5.18221 21.7803 3.10938H20.8718Z" fill="#F1F2F2"/>
<path d="M4.12077 1.61221C4.12077 1.06201 4.12077 0.524606 4.15916 0H3.36577C3.36577 1.16437 3.31457 2.18799 3.23779 3.10925H4.14635C4.12076 2.62303 4.10796 2.12402 4.10796 1.61221H4.12077Z" fill="#5FCAE5"/>
<path d="M21.6523 0H20.8589C20.8845 0.524606 20.8973 1.06201 20.8973 1.61221C20.8973 2.11122 20.8845 2.61024 20.8589 3.10925H21.7674C21.6907 2.18799 21.6395 1.16437 21.6395 0H21.6523Z" fill="#5FCAE5"/>
<path d="M18.8369 12.3221H23.047L25.0177 10.3516V10.3133C25.0177 10.3133 23.7125 10.2237 22.7271 7.71582H20.2957C19.9374 9.41759 19.4512 10.9658 18.8369 12.3221Z" fill="#5FCAE5"/>
<path d="M6.19405 12.3218H0.0131836V16.9281H9.63638C8.29272 15.9684 7.11541 14.369 6.19405 12.3218Z" fill="#F1F2F2"/>
<path d="M9.22688 26.1538H0.0131836V30.7601H4.62003L9.22688 26.1538Z" fill="#5FCAE5"/>
<path d="M13.8337 21.5474H0.0131836V26.1537H9.22688L13.8337 21.5474Z" fill="#F1F2F2"/>
<path d="M4.15877 3.10938H3.25017C3.07102 5.18221 2.71272 6.66647 2.30322 7.71568H4.7346C4.44028 6.26982 4.23555 4.72158 4.15877 3.10938Z" fill="#F1F2F2"/>
<path d="M0.0131836 30.7598V35.3661L4.62003 30.7598H0.0131836Z" fill="#F1F2F2"/>
<path d="M4.7352 7.71582H2.30382C1.31847 10.2109 0.0131836 10.3133 0.0131836 10.3133V12.3221H6.19405C5.5798 10.9658 5.0935 9.41759 4.7352 7.71582Z" fill="#5FCAE5"/>
<path d="M18.4402 16.9409H15.4073C14.4987 17.5807 13.539 17.9517 12.5152 17.9517C11.4915 17.9517 10.5317 17.5807 9.62316 16.9409H0V21.5472H13.8205L18.4273 16.9409H18.4402Z" fill="#5FCAE5"/>
</svg>
