<svg width="321" height="153" viewBox="0 0 321 153" fill="none" xmlns="http://www.w3.org/2000/svg">
<rect width="153" height="153" rx="10" fill="white"/>
<mask id="mask0_1110_35320" style="mask-type:alpha" maskUnits="userSpaceOnUse" x="0" y="0" width="153" height="153">
<rect width="153" height="153" rx="10" fill="white"/>
</mask>
<g mask="url(#mask0_1110_35320)">
<circle opacity="0.46" cx="31" cy="107" r="113" fill="url(#paint0_linear_1110_35320)" fill-opacity="0.33"/>
</g>
<path d="M28.792 48.098C28.428 48.098 28.218 47.874 28.218 47.496V38.718C28.218 38.34 28.428 38.13 28.806 38.13H32.124C34.238 38.13 35.414 39.208 35.414 41.098C35.414 42.974 34.238 44.066 32.124 44.066H29.366V47.496C29.366 47.874 29.17 48.098 28.792 48.098ZM29.366 39.082V43.1H31.984C33.51 43.1 34.28 42.414 34.28 41.098C34.28 39.768 33.51 39.082 31.984 39.082H29.366ZM39.6749 48.126C37.5189 48.126 36.1889 46.782 36.1889 44.612C36.1889 42.498 37.5329 41.07 39.4649 41.07C41.2989 41.07 42.4189 42.33 42.4189 44.402C42.4189 44.696 42.2509 44.836 41.9289 44.836H37.2809C37.3649 46.39 38.2189 47.216 39.6749 47.216C40.2909 47.216 40.9489 47.076 41.5369 46.67C42.1809 46.264 42.6009 47.034 42.0129 47.426C41.3969 47.874 40.4869 48.126 39.6749 48.126ZM39.4929 41.91C38.1909 41.91 37.4349 42.792 37.2949 44.094H41.4389C41.3829 42.722 40.7109 41.91 39.4929 41.91ZM46.3561 48.126C45.5161 48.126 44.6341 47.93 43.9061 47.44C43.4021 47.132 43.7521 46.362 44.3121 46.656C45.0401 47.104 45.7121 47.258 46.3841 47.258C47.4481 47.258 47.9941 46.838 47.9941 46.166C47.9941 45.634 47.6441 45.354 46.8881 45.186L45.6141 44.906C44.4381 44.654 43.8781 44.052 43.8781 43.114C43.8781 41.882 44.9421 41.07 46.5381 41.07C47.3501 41.07 48.1061 41.28 48.7081 41.742C49.1841 42.064 48.7921 42.82 48.2461 42.484C47.6861 42.106 47.0981 41.938 46.5381 41.938C45.5021 41.938 44.9421 42.386 44.9421 43.058C44.9421 43.59 45.2501 43.912 45.9781 44.066L47.2521 44.332C48.4561 44.598 49.0721 45.144 49.0721 46.11C49.0721 47.356 47.9941 48.126 46.3561 48.126ZM52.9423 48.126C51.5423 48.126 50.4923 47.216 50.4923 46.04C50.4923 44.542 51.5003 44.052 54.5803 44.052H55.0283V43.618C55.0283 42.47 54.5803 41.98 53.5303 41.98C52.8723 41.98 52.2283 42.134 51.5143 42.512C50.8703 42.834 50.5903 41.924 51.1643 41.658C51.9623 41.252 52.8023 41.07 53.5303 41.07C55.2943 41.07 56.1203 41.896 56.1203 43.716V47.51C56.1203 47.888 55.9383 48.098 55.6023 48.098C55.2523 48.098 55.0563 47.888 55.0563 47.51V46.81C54.7063 47.622 53.9363 48.126 52.9423 48.126ZM53.1243 47.272C54.2303 47.272 55.0283 46.404 55.0283 45.214V44.794H54.5943C52.3123 44.794 51.6403 45.074 51.6403 45.97C51.6403 46.74 52.2003 47.272 53.1243 47.272ZM58.7842 48.098C58.4202 48.098 58.2242 47.888 58.2242 47.51V41.672C58.2242 41.294 58.4202 41.098 58.7702 41.098C59.1342 41.098 59.3302 41.294 59.3302 41.672V42.358C59.7782 41.504 60.6462 41.07 61.6682 41.07C63.2922 41.07 64.0902 41.938 64.0902 43.758V47.51C64.0902 47.888 63.8802 48.098 63.5302 48.098C63.1662 48.098 62.9562 47.888 62.9562 47.51V43.828C62.9562 42.568 62.4802 41.994 61.4022 41.994C60.1562 41.994 59.3582 42.848 59.3582 44.122V47.51C59.3582 47.888 59.1622 48.098 58.7842 48.098ZM68.3232 48.126C66.9232 48.126 65.8732 47.216 65.8732 46.04C65.8732 44.542 66.8812 44.052 69.9612 44.052H70.4092V43.618C70.4092 42.47 69.9612 41.98 68.9112 41.98C68.2532 41.98 67.6092 42.134 66.8952 42.512C66.2512 42.834 65.9712 41.924 66.5452 41.658C67.3432 41.252 68.1832 41.07 68.9112 41.07C70.6752 41.07 71.5012 41.896 71.5012 43.716V47.51C71.5012 47.888 71.3192 48.098 70.9832 48.098C70.6332 48.098 70.4372 47.888 70.4372 47.51V46.81C70.0872 47.622 69.3172 48.126 68.3232 48.126ZM68.5052 47.272C69.6112 47.272 70.4092 46.404 70.4092 45.214V44.794H69.9752C67.6932 44.794 67.0212 45.074 67.0212 45.97C67.0212 46.74 67.5812 47.272 68.5052 47.272ZM74.165 48.098C73.801 48.098 73.605 47.888 73.605 47.51V41.672C73.605 41.294 73.801 41.098 74.151 41.098C74.515 41.098 74.711 41.294 74.711 41.672V42.358C75.159 41.504 76.027 41.07 77.049 41.07C78.673 41.07 79.471 41.938 79.471 43.758V47.51C79.471 47.888 79.261 48.098 78.911 48.098C78.547 48.098 78.337 47.888 78.337 47.51V43.828C78.337 42.568 77.861 41.994 76.783 41.994C75.537 41.994 74.739 42.848 74.739 44.122V47.51C74.739 47.888 74.543 48.098 74.165 48.098ZM85.7314 48.098C85.3674 48.098 85.1714 47.888 85.1714 47.51V38.606C85.1714 38.242 85.3674 38.032 85.7314 38.032C86.0954 38.032 86.3054 38.242 86.3054 38.606V42.302C86.7674 41.49 87.6214 41.07 88.6154 41.07C90.2394 41.07 91.0374 41.966 91.0374 43.758V47.51C91.0374 47.888 90.8274 48.098 90.4774 48.098C90.1134 48.098 89.9034 47.888 89.9034 47.51V43.828C89.9034 42.568 89.4274 41.994 88.3494 41.994C87.1034 41.994 86.3054 42.848 86.3054 44.122V47.51C86.3054 47.888 86.1094 48.098 85.7314 48.098ZM95.2705 48.126C93.8705 48.126 92.8205 47.216 92.8205 46.04C92.8205 44.542 93.8285 44.052 96.9085 44.052H97.3565V43.618C97.3565 42.47 96.9085 41.98 95.8585 41.98C95.2005 41.98 94.5565 42.134 93.8425 42.512C93.1985 42.834 92.9185 41.924 93.4925 41.658C94.2905 41.252 95.1305 41.07 95.8585 41.07C97.6225 41.07 98.4485 41.896 98.4485 43.716V47.51C98.4485 47.888 98.2665 48.098 97.9305 48.098C97.5805 48.098 97.3845 47.888 97.3845 47.51V46.81C97.0345 47.622 96.2645 48.126 95.2705 48.126ZM95.4525 47.272C96.5585 47.272 97.3565 46.404 97.3565 45.214V44.794H96.9225C94.6405 44.794 93.9685 45.074 93.9685 45.97C93.9685 46.74 94.5285 47.272 95.4525 47.272ZM101.126 48.098C100.748 48.098 100.552 47.888 100.552 47.51V41.672C100.552 41.294 100.748 41.098 101.098 41.098C101.462 41.098 101.658 41.294 101.658 41.672V42.414C102.036 41.56 102.848 41.098 103.926 41.056C104.206 41.028 104.388 41.168 104.402 41.504C104.43 41.826 104.262 42.022 103.898 42.05L103.674 42.078C102.4 42.19 101.7 42.918 101.7 44.122V47.51C101.7 47.888 101.49 48.098 101.126 48.098ZM106.13 39.558C105.654 39.558 105.388 39.306 105.388 38.858C105.388 38.41 105.654 38.172 106.13 38.172C106.606 38.172 106.872 38.41 106.872 38.858C106.872 39.306 106.62 39.558 106.13 39.558ZM106.13 48.07C105.766 48.07 105.57 47.846 105.57 47.454V41.728C105.57 41.336 105.766 41.126 106.13 41.126C106.494 41.126 106.704 41.336 106.704 41.728V47.454C106.704 47.846 106.508 48.07 106.13 48.07ZM112.993 39.558C112.517 39.558 112.251 39.306 112.251 38.858C112.251 38.41 112.517 38.172 112.993 38.172C113.469 38.172 113.735 38.41 113.735 38.858C113.735 39.306 113.483 39.558 112.993 39.558ZM112.993 48.07C112.629 48.07 112.433 47.846 112.433 47.454V41.728C112.433 41.336 112.629 41.126 112.993 41.126C113.357 41.126 113.567 41.336 113.567 41.728V47.454C113.567 47.846 113.371 48.07 112.993 48.07ZM116.247 48.098C115.883 48.098 115.687 47.888 115.687 47.51V41.672C115.687 41.294 115.883 41.098 116.233 41.098C116.597 41.098 116.793 41.294 116.793 41.672V42.358C117.241 41.504 118.109 41.07 119.131 41.07C120.755 41.07 121.553 41.938 121.553 43.758V47.51C121.553 47.888 121.343 48.098 120.993 48.098C120.629 48.098 120.419 47.888 120.419 47.51V43.828C120.419 42.568 119.943 41.994 118.865 41.994C117.619 41.994 116.821 42.848 116.821 44.122V47.51C116.821 47.888 116.625 48.098 116.247 48.098ZM124.204 39.558C123.728 39.558 123.462 39.306 123.462 38.858C123.462 38.41 123.728 38.172 124.204 38.172C124.68 38.172 124.946 38.41 124.946 38.858C124.946 39.306 124.694 39.558 124.204 39.558ZM124.204 48.07C123.84 48.07 123.644 47.846 123.644 47.454V41.728C123.644 41.336 123.84 41.126 124.204 41.126C124.568 41.126 124.778 41.336 124.778 41.728V47.454C124.778 47.846 124.582 48.07 124.204 48.07Z" fill="#092551"/>
<path d="M36.96 77H30.12C29.42 77 29.02 76.6 29.02 75.92C29.02 75.24 29.42 74.88 30.12 74.88H32.36V65.82L30.66 66.84C29.4 67.6 28.36 65.74 29.64 64.98L32.4 63.32C32.94 63 33.48 62.74 33.94 62.74C34.5 62.74 34.92 63.04 34.92 63.72V74.88H36.96C37.66 74.88 38.06 75.24 38.06 75.92C38.06 76.62 37.66 77 36.96 77ZM45.1122 77.2C43.6922 77.2 42.1522 76.84 40.9322 76.06C39.6522 75.24 40.6322 73.42 41.9522 74.18C42.9322 74.74 43.9122 75.04 45.0722 75.04C46.7522 75.04 47.7522 74.1 47.7522 72.64C47.7522 71.16 46.7922 70.14 45.2122 70.14C44.3522 70.14 43.5522 70.38 42.7922 71.08C42.5522 71.3 42.1522 71.54 41.7322 71.54C41.0522 71.54 40.7122 71.18 40.7122 70.56V64.02C40.7122 63.3 41.1122 62.9 41.8322 62.9H48.4122C49.1322 62.9 49.5322 63.28 49.5322 63.96C49.5322 64.64 49.1322 65.02 48.4122 65.02H43.2122V68.84C43.8922 68.32 44.8122 68.04 45.8122 68.04C48.4722 68.04 50.2322 69.86 50.2322 72.54C50.2322 75.32 48.2722 77.2 45.1122 77.2ZM56.9844 77.2C53.6444 77.2 51.8444 74.6 51.8444 69.92C51.8444 65.2 53.6444 62.7 56.9844 62.7C60.3444 62.7 62.1244 65.2 62.1244 69.9C62.1244 74.6 60.3244 77.2 56.9844 77.2ZM56.9844 75.1C58.7844 75.1 59.6444 73.48 59.6444 69.9C59.6444 66.32 58.8044 64.8 56.9844 64.8C55.1844 64.8 54.3244 66.34 54.3244 69.9C54.3244 73.48 55.1844 75.1 56.9844 75.1Z" fill="#092551"/>
<g style="mix-blend-mode:multiply">
<rect x="27" y="98" width="56" height="22" rx="11" fill="#ECFDF3"/>
<path d="M39 112.5V105.5M39 105.5L35.5 109M39 105.5L42.5 109" stroke="#12B76A" stroke-width="1.5" stroke-linecap="round" stroke-linejoin="round"/>
<path d="M49.8887 111.295V110.23L53.66 104.273H54.4995V105.841H53.9668L51.2694 110.111V110.179H56.4384V111.295H49.8887ZM54.0265 113V110.972L54.035 110.486V104.273H55.2836V113H54.0265ZM60.9618 113.145C60.2885 113.142 59.7132 112.964 59.236 112.612C58.7587 112.26 58.3936 111.747 58.1408 111.074C57.888 110.401 57.7615 109.589 57.7615 108.641C57.7615 107.695 57.888 106.886 58.1408 106.216C58.3965 105.545 58.763 105.034 59.2402 104.682C59.7203 104.33 60.2942 104.153 60.9618 104.153C61.6294 104.153 62.2019 104.331 62.6792 104.686C63.1564 105.038 63.5215 105.55 63.7743 106.22C64.03 106.888 64.1578 107.695 64.1578 108.641C64.1578 109.592 64.0314 110.405 63.7786 111.078C63.5257 111.749 63.1607 112.261 62.6834 112.616C62.2061 112.969 61.6323 113.145 60.9618 113.145ZM60.9618 112.007C61.5527 112.007 62.0144 111.719 62.3468 111.142C62.682 110.565 62.8496 109.732 62.8496 108.641C62.8496 107.916 62.7729 107.304 62.6195 106.804C62.4689 106.301 62.2516 105.92 61.9675 105.662C61.6863 105.401 61.351 105.27 60.9618 105.27C60.3738 105.27 59.9121 105.56 59.5769 106.139C59.2417 106.719 59.0726 107.553 59.0698 108.641C59.0698 109.368 59.1451 109.983 59.2956 110.486C59.449 110.986 59.6664 111.365 59.9476 111.624C60.2289 111.879 60.5669 112.007 60.9618 112.007ZM70.225 111.364V110.903C70.225 110.574 70.2931 110.273 70.4295 110C70.5687 109.724 70.7704 109.504 71.0346 109.339C71.3017 109.172 71.6241 109.088 72.002 109.088C72.3883 109.088 72.7122 109.17 72.9735 109.335C73.2349 109.5 73.4324 109.72 73.5659 109.996C73.7022 110.271 73.7704 110.574 73.7704 110.903V111.364C73.7704 111.693 73.7022 111.996 73.5659 112.271C73.4295 112.544 73.2292 112.764 72.965 112.932C72.7037 113.097 72.3826 113.179 72.002 113.179C71.6184 113.179 71.2946 113.097 71.0304 112.932C70.7662 112.764 70.5659 112.544 70.4295 112.271C70.2931 111.996 70.225 111.693 70.225 111.364ZM71.2179 110.903V111.364C71.2179 111.608 71.2761 111.83 71.3926 112.028C71.5091 112.227 71.7122 112.327 72.002 112.327C72.2889 112.327 72.4892 112.227 72.6028 112.028C72.7164 111.83 72.7733 111.608 72.7733 111.364V110.903C72.7733 110.659 72.7179 110.437 72.6071 110.239C72.4991 110.04 72.2974 109.94 72.002 109.94C71.7179 109.94 71.5162 110.04 71.3968 110.239C71.2775 110.437 71.2179 110.659 71.2179 110.903ZM65.8358 106.369V105.909C65.8358 105.58 65.9039 105.277 66.0403 105.001C66.1795 104.726 66.3812 104.506 66.6454 104.341C66.9125 104.176 67.2349 104.094 67.6127 104.094C67.9991 104.094 68.323 104.176 68.5843 104.341C68.8457 104.506 69.0431 104.726 69.1767 105.001C69.3102 105.277 69.377 105.58 69.377 105.909V106.369C69.377 106.699 69.3088 107.001 69.1724 107.277C69.0389 107.55 68.84 107.77 68.5758 107.938C68.3145 108.102 67.9934 108.185 67.6127 108.185C67.2264 108.185 66.9011 108.102 66.6369 107.938C66.3755 107.77 66.1767 107.55 66.0403 107.277C65.9039 107.001 65.8358 106.699 65.8358 106.369ZM66.8329 105.909V106.369C66.8329 106.614 66.8897 106.835 67.0034 107.034C67.1199 107.233 67.323 107.332 67.6127 107.332C67.8968 107.332 68.0957 107.233 68.2093 107.034C68.3258 106.835 68.3841 106.614 68.3841 106.369V105.909C68.3841 105.665 68.3287 105.443 68.2179 105.244C68.1071 105.045 67.9054 104.946 67.6127 104.946C67.3287 104.946 67.127 105.045 67.0076 105.244C66.8912 105.443 66.8329 105.665 66.8329 105.909ZM66.2406 113L72.2406 104.273H73.2591L67.2591 113H66.2406Z" fill="#027A48"/>
</g>
<rect x="168" width="153" height="153" rx="10" fill="white"/>
<mask id="mask1_1110_35320" style="mask-type:alpha" maskUnits="userSpaceOnUse" x="168" y="0" width="153" height="153">
<rect x="168" width="153" height="153" rx="10" fill="white"/>
</mask>
<g mask="url(#mask1_1110_35320)">
<circle opacity="0.46" cx="199" cy="107" r="113" fill="url(#paint1_linear_1110_35320)" fill-opacity="0.33"/>
</g>
<path d="M184.792 49.098C184.428 49.098 184.218 48.874 184.218 48.496V39.718C184.218 39.34 184.428 39.13 184.806 39.13H188.124C190.238 39.13 191.414 40.208 191.414 42.098C191.414 43.974 190.238 45.066 188.124 45.066H185.366V48.496C185.366 48.874 185.17 49.098 184.792 49.098ZM185.366 40.082V44.1H187.984C189.51 44.1 190.28 43.414 190.28 42.098C190.28 40.768 189.51 40.082 187.984 40.082H185.366ZM195.675 49.126C193.519 49.126 192.189 47.782 192.189 45.612C192.189 43.498 193.533 42.07 195.465 42.07C197.299 42.07 198.419 43.33 198.419 45.402C198.419 45.696 198.251 45.836 197.929 45.836H193.281C193.365 47.39 194.219 48.216 195.675 48.216C196.291 48.216 196.949 48.076 197.537 47.67C198.181 47.264 198.601 48.034 198.013 48.426C197.397 48.874 196.487 49.126 195.675 49.126ZM195.493 42.91C194.191 42.91 193.435 43.792 193.295 45.094H197.439C197.383 43.722 196.711 42.91 195.493 42.91ZM200.62 49.098C200.256 49.098 200.06 48.888 200.06 48.51V42.672C200.06 42.294 200.256 42.098 200.606 42.098C200.97 42.098 201.166 42.294 201.166 42.672V43.358C201.614 42.504 202.482 42.07 203.504 42.07C205.128 42.07 205.926 42.938 205.926 44.758V48.51C205.926 48.888 205.716 49.098 205.366 49.098C205.002 49.098 204.792 48.888 204.792 48.51V44.828C204.792 43.568 204.316 42.994 203.238 42.994C201.992 42.994 201.194 43.848 201.194 45.122V48.51C201.194 48.888 200.998 49.098 200.62 49.098ZM211.027 51.646C210.033 51.646 209.053 51.422 208.297 50.918C207.751 50.596 208.199 49.812 208.689 50.078C209.515 50.582 210.229 50.736 210.971 50.736C212.301 50.736 212.987 50.022 212.987 48.664V47.474C212.595 48.328 211.699 48.846 210.649 48.846C208.773 48.846 207.597 47.474 207.597 45.444C207.597 43.428 208.773 42.07 210.649 42.07C211.713 42.07 212.581 42.574 212.973 43.414V42.672C212.973 42.294 213.183 42.098 213.533 42.098C213.897 42.098 214.093 42.294 214.093 42.672V48.51C214.093 50.596 213.043 51.646 211.027 51.646ZM210.859 47.922C212.161 47.922 212.987 46.97 212.987 45.444C212.987 43.932 212.161 42.98 210.859 42.98C209.557 42.98 208.745 43.932 208.745 45.444C208.745 46.97 209.557 47.922 210.859 47.922ZM216.78 49.098C216.416 49.098 216.22 48.888 216.22 48.51V39.606C216.22 39.242 216.416 39.032 216.78 39.032C217.144 39.032 217.354 39.242 217.354 39.606V43.302C217.816 42.49 218.67 42.07 219.664 42.07C221.288 42.07 222.086 42.966 222.086 44.758V48.51C222.086 48.888 221.876 49.098 221.526 49.098C221.162 49.098 220.952 48.888 220.952 48.51V44.828C220.952 43.568 220.476 42.994 219.398 42.994C218.152 42.994 217.354 43.848 217.354 45.122V48.51C217.354 48.888 217.158 49.098 216.78 49.098ZM226.319 49.126C224.919 49.126 223.869 48.216 223.869 47.04C223.869 45.542 224.877 45.052 227.957 45.052H228.405V44.618C228.405 43.47 227.957 42.98 226.907 42.98C226.249 42.98 225.605 43.134 224.891 43.512C224.247 43.834 223.967 42.924 224.541 42.658C225.339 42.252 226.179 42.07 226.907 42.07C228.671 42.07 229.497 42.896 229.497 44.716V48.51C229.497 48.888 229.315 49.098 228.979 49.098C228.629 49.098 228.433 48.888 228.433 48.51V47.81C228.083 48.622 227.313 49.126 226.319 49.126ZM226.501 48.272C227.607 48.272 228.405 47.404 228.405 46.214V45.794H227.971C225.689 45.794 225.017 46.074 225.017 46.97C225.017 47.74 225.577 48.272 226.501 48.272ZM233.897 49.126C233.057 49.126 232.175 48.93 231.447 48.44C230.943 48.132 231.293 47.362 231.853 47.656C232.581 48.104 233.253 48.258 233.925 48.258C234.989 48.258 235.535 47.838 235.535 47.166C235.535 46.634 235.185 46.354 234.429 46.186L233.155 45.906C231.979 45.654 231.419 45.052 231.419 44.114C231.419 42.882 232.483 42.07 234.079 42.07C234.891 42.07 235.647 42.28 236.249 42.742C236.725 43.064 236.333 43.82 235.787 43.484C235.227 43.106 234.639 42.938 234.079 42.938C233.043 42.938 232.483 43.386 232.483 44.058C232.483 44.59 232.791 44.912 233.519 45.066L234.793 45.332C235.997 45.598 236.613 46.144 236.613 47.11C236.613 48.356 235.535 49.126 233.897 49.126ZM238.901 40.558C238.425 40.558 238.159 40.306 238.159 39.858C238.159 39.41 238.425 39.172 238.901 39.172C239.377 39.172 239.643 39.41 239.643 39.858C239.643 40.306 239.391 40.558 238.901 40.558ZM238.901 49.07C238.537 49.07 238.341 48.846 238.341 48.454V42.728C238.341 42.336 238.537 42.126 238.901 42.126C239.265 42.126 239.475 42.336 239.475 42.728V48.454C239.475 48.846 239.279 49.07 238.901 49.07ZM243.667 49.126C242.309 49.126 241.595 48.286 241.595 46.746V39.606C241.595 39.242 241.791 39.032 242.155 39.032C242.519 39.032 242.729 39.242 242.729 39.606V46.662C242.729 47.67 243.135 48.16 243.919 48.16C244.087 48.16 244.213 48.132 244.339 48.132C244.535 48.118 244.619 48.202 244.619 48.538C244.619 48.874 244.493 49.028 244.143 49.084C243.989 49.112 243.821 49.126 243.667 49.126ZM247.88 49.126C246.48 49.126 245.43 48.216 245.43 47.04C245.43 45.542 246.438 45.052 249.518 45.052H249.966V44.618C249.966 43.47 249.518 42.98 248.468 42.98C247.81 42.98 247.166 43.134 246.452 43.512C245.808 43.834 245.528 42.924 246.102 42.658C246.9 42.252 247.74 42.07 248.468 42.07C250.232 42.07 251.058 42.896 251.058 44.716V48.51C251.058 48.888 250.876 49.098 250.54 49.098C250.19 49.098 249.994 48.888 249.994 48.51V47.81C249.644 48.622 248.874 49.126 247.88 49.126ZM248.062 48.272C249.168 48.272 249.966 47.404 249.966 46.214V45.794H249.532C247.25 45.794 246.578 46.074 246.578 46.97C246.578 47.74 247.138 48.272 248.062 48.272ZM253.722 49.098C253.358 49.098 253.162 48.888 253.162 48.51V42.672C253.162 42.294 253.358 42.098 253.708 42.098C254.072 42.098 254.268 42.294 254.268 42.672V43.358C254.716 42.504 255.584 42.07 256.606 42.07C258.23 42.07 259.028 42.938 259.028 44.758V48.51C259.028 48.888 258.818 49.098 258.468 49.098C258.104 49.098 257.894 48.888 257.894 48.51V44.828C257.894 43.568 257.418 42.994 256.34 42.994C255.094 42.994 254.296 43.848 254.296 45.122V48.51C254.296 48.888 254.1 49.098 253.722 49.098ZM265.357 49.098C264.951 49.098 264.727 48.86 264.727 48.44V39.676C264.727 39.256 264.951 39.032 265.357 39.032C265.763 39.032 266.001 39.256 266.001 39.676V43.274C266.463 42.476 267.317 42.056 268.297 42.056C269.935 42.056 270.719 42.952 270.719 44.772V48.44C270.719 48.86 270.495 49.098 270.089 49.098C269.683 49.098 269.445 48.86 269.445 48.44V44.842C269.445 43.624 268.997 43.092 267.975 43.092C266.771 43.092 266.001 43.89 266.001 45.136V48.44C266.001 48.86 265.777 49.098 265.357 49.098ZM274.909 49.126C273.495 49.126 272.445 48.216 272.445 47.026C272.445 45.528 273.467 45.024 276.505 45.024H276.967V44.618C276.967 43.512 276.547 43.05 275.497 43.05C274.881 43.05 274.237 43.204 273.523 43.568C272.837 43.918 272.529 42.91 273.159 42.63C273.985 42.224 274.811 42.056 275.525 42.056C277.331 42.056 278.199 42.91 278.199 44.744V48.44C278.199 48.86 277.989 49.098 277.597 49.098C277.219 49.098 276.995 48.86 276.995 48.44V47.838C276.659 48.636 275.903 49.126 274.909 49.126ZM275.147 48.202C276.197 48.202 276.967 47.362 276.967 46.228V45.836H276.533C274.363 45.836 273.705 46.088 273.705 46.956C273.705 47.684 274.251 48.202 275.147 48.202ZM280.862 49.098C280.428 49.098 280.204 48.86 280.204 48.44V42.728C280.204 42.308 280.428 42.084 280.834 42.084C281.226 42.084 281.45 42.308 281.45 42.728V43.4C281.828 42.546 282.612 42.098 283.704 42.042C283.998 42.014 284.194 42.182 284.222 42.546C284.25 42.896 284.054 43.12 283.662 43.162L283.41 43.176C282.164 43.302 281.492 43.988 281.492 45.164V48.44C281.492 48.86 281.282 49.098 280.862 49.098ZM285.947 40.6C285.443 40.6 285.135 40.32 285.135 39.858C285.135 39.368 285.443 39.116 285.947 39.116C286.479 39.116 286.759 39.368 286.759 39.858C286.759 40.32 286.479 40.6 285.947 40.6ZM285.947 49.07C285.541 49.07 285.317 48.818 285.317 48.384V42.798C285.317 42.35 285.541 42.112 285.947 42.112C286.353 42.112 286.591 42.35 286.591 42.798V48.384C286.591 48.818 286.367 49.07 285.947 49.07ZM292.92 40.6C292.416 40.6 292.108 40.32 292.108 39.858C292.108 39.368 292.416 39.116 292.92 39.116C293.452 39.116 293.732 39.368 293.732 39.858C293.732 40.32 293.452 40.6 292.92 40.6ZM292.92 49.07C292.514 49.07 292.29 48.818 292.29 48.384V42.798C292.29 42.35 292.514 42.112 292.92 42.112C293.326 42.112 293.564 42.35 293.564 42.798V48.384C293.564 48.818 293.34 49.07 292.92 49.07ZM296.242 49.098C295.836 49.098 295.612 48.86 295.612 48.44V42.728C295.612 42.308 295.836 42.084 296.242 42.084C296.634 42.084 296.858 42.308 296.858 42.728V43.33C297.32 42.49 298.174 42.056 299.182 42.056C300.82 42.056 301.604 42.938 301.604 44.772V48.44C301.604 48.86 301.38 49.098 300.974 49.098C300.568 49.098 300.33 48.86 300.33 48.44V44.842C300.33 43.624 299.882 43.092 298.86 43.092C297.656 43.092 296.886 43.89 296.886 45.136V48.44C296.886 48.86 296.662 49.098 296.242 49.098ZM304.254 40.6C303.75 40.6 303.442 40.32 303.442 39.858C303.442 39.368 303.75 39.116 304.254 39.116C304.786 39.116 305.066 39.368 305.066 39.858C305.066 40.32 304.786 40.6 304.254 40.6ZM304.254 49.07C303.848 49.07 303.624 48.818 303.624 48.384V42.798C303.624 42.35 303.848 42.112 304.254 42.112C304.66 42.112 304.898 42.35 304.898 42.798V48.384C304.898 48.818 304.674 49.07 304.254 49.07Z" fill="#092551"/>
<path d="M184.834 75.098C184.428 75.098 184.19 74.86 184.19 74.426V65.704C184.19 65.27 184.428 65.032 184.834 65.032C185.254 65.032 185.492 65.27 185.492 65.704V74.426C185.492 74.86 185.268 75.098 184.834 75.098ZM191.256 75H188.554C188.106 75 187.854 74.748 187.854 74.3V65.83C187.854 65.382 188.106 65.13 188.554 65.13H191.256C194.476 65.13 196.296 66.866 196.296 70.058C196.296 73.25 194.476 75 191.256 75ZM189.156 66.236V73.894H191.172C193.692 73.894 194.938 72.62 194.938 70.058C194.938 67.496 193.678 66.236 191.172 66.236H189.156ZM198.957 75.098C198.551 75.098 198.313 74.86 198.313 74.426V65.788C198.313 65.368 198.551 65.13 198.971 65.13H202.303C204.431 65.13 205.621 66.18 205.621 68C205.621 69.47 204.809 70.436 203.353 70.744C203.801 70.898 204.151 71.248 204.459 71.822L205.747 74.188C205.985 74.65 205.831 75.098 205.299 75.098C204.935 75.098 204.725 74.944 204.557 74.622L203.045 71.85C202.639 71.08 202.149 70.884 201.295 70.884H199.615V74.426C199.615 74.86 199.391 75.098 198.957 75.098ZM199.615 66.194V69.876H202.093C203.577 69.876 204.333 69.246 204.333 68.028C204.333 66.81 203.577 66.194 202.093 66.194H199.615ZM217.627 75.144C216.907 75.144 216.475 74.73 216.475 73.992V72.588H212.029C211.291 72.588 210.805 72.282 210.805 71.634C210.805 71.238 210.985 70.842 211.507 70.086L216.439 62.94C216.781 62.436 217.159 62.166 217.699 62.166C218.329 62.166 218.779 62.526 218.779 63.318V70.68H219.661C220.345 70.68 220.705 71.004 220.705 71.634C220.705 72.264 220.345 72.588 219.661 72.588H218.779V73.992C218.779 74.73 218.347 75.144 217.627 75.144ZM216.475 70.68V65.838L213.163 70.68H216.475ZM226.386 75.18C223.38 75.18 221.76 72.84 221.76 68.628C221.76 64.38 223.38 62.13 226.386 62.13C229.41 62.13 231.012 64.38 231.012 68.61C231.012 72.84 229.392 75.18 226.386 75.18ZM226.386 73.29C228.006 73.29 228.78 71.832 228.78 68.61C228.78 65.388 228.024 64.02 226.386 64.02C224.766 64.02 223.992 65.406 223.992 68.61C223.992 71.832 224.766 73.29 226.386 73.29ZM237.179 75.18C234.173 75.18 232.553 72.84 232.553 68.628C232.553 64.38 234.173 62.13 237.179 62.13C240.203 62.13 241.805 64.38 241.805 68.61C241.805 72.84 240.185 75.18 237.179 75.18ZM237.179 73.29C238.799 73.29 239.573 71.832 239.573 68.61C239.573 65.388 238.817 64.02 237.179 64.02C235.559 64.02 234.785 65.406 234.785 68.61C234.785 71.832 235.559 73.29 237.179 73.29ZM245.11 76.926C244.48 77.7 243.508 77.016 244.174 76.188C244.462 75.828 244.624 75.432 244.714 75.09C243.958 75.018 243.472 74.496 243.472 73.74C243.472 72.966 243.976 72.426 244.804 72.426C245.632 72.426 246.154 73.02 246.154 74.064C246.154 74.928 245.956 75.882 245.11 76.926ZM252.437 75.18C249.431 75.18 247.811 72.84 247.811 68.628C247.811 64.38 249.431 62.13 252.437 62.13C255.461 62.13 257.063 64.38 257.063 68.61C257.063 72.84 255.443 75.18 252.437 75.18ZM252.437 73.29C254.057 73.29 254.831 71.832 254.831 68.61C254.831 65.388 254.075 64.02 252.437 64.02C250.817 64.02 250.043 65.406 250.043 68.61C250.043 71.832 250.817 73.29 252.437 73.29ZM263.23 75.18C260.224 75.18 258.604 72.84 258.604 68.628C258.604 64.38 260.224 62.13 263.23 62.13C266.254 62.13 267.856 64.38 267.856 68.61C267.856 72.84 266.236 75.18 263.23 75.18ZM263.23 73.29C264.85 73.29 265.624 71.832 265.624 68.61C265.624 65.388 264.868 64.02 263.23 64.02C261.61 64.02 260.836 65.406 260.836 68.61C260.836 71.832 261.61 73.29 263.23 73.29ZM274.023 75.18C271.017 75.18 269.397 72.84 269.397 68.628C269.397 64.38 271.017 62.13 274.023 62.13C277.047 62.13 278.649 64.38 278.649 68.61C278.649 72.84 277.029 75.18 274.023 75.18ZM274.023 73.29C275.643 73.29 276.417 71.832 276.417 68.61C276.417 65.388 275.661 64.02 274.023 64.02C272.403 64.02 271.629 65.406 271.629 68.61C271.629 71.832 272.403 73.29 274.023 73.29Z" fill="#092551"/>
<g style="mix-blend-mode:multiply">
<rect x="183" y="96" width="48" height="22" rx="11" fill="#FFF1F3"/>
<path d="M195 103.5V110.5M195 110.5L191.5 107M195 110.5L198.5 107" stroke="#F63D68" stroke-width="1.5" stroke-linecap="round" stroke-linejoin="round"/>
<path d="M209.031 111.119C208.497 111.119 208.017 111.017 207.59 110.812C207.167 110.605 206.829 110.321 206.576 109.96C206.323 109.599 206.188 109.188 206.171 108.724H207.45C207.481 109.099 207.647 109.408 207.948 109.649C208.249 109.891 208.61 110.011 209.031 110.011C209.366 110.011 209.663 109.935 209.921 109.781C210.183 109.625 210.387 109.411 210.535 109.138C210.686 108.865 210.761 108.554 210.761 108.205C210.761 107.849 210.684 107.533 210.531 107.254C210.377 106.976 210.166 106.757 209.896 106.598C209.629 106.439 209.322 106.358 208.975 106.355C208.711 106.355 208.445 106.401 208.178 106.491C207.911 106.582 207.695 106.702 207.531 106.849L206.325 106.67L206.815 102.273H211.613V103.402H207.91L207.633 105.844H207.684C207.855 105.679 208.08 105.541 208.362 105.43C208.646 105.32 208.95 105.264 209.274 105.264C209.805 105.264 210.278 105.391 210.693 105.643C211.11 105.896 211.438 106.241 211.677 106.679C211.919 107.114 212.038 107.614 212.035 108.179C212.038 108.744 211.91 109.249 211.651 109.692C211.396 110.135 211.041 110.484 210.586 110.74C210.134 110.993 209.616 111.119 209.031 111.119ZM218.147 109.364V108.903C218.147 108.574 218.215 108.273 218.351 108C218.491 107.724 218.692 107.504 218.956 107.339C219.224 107.172 219.546 107.088 219.924 107.088C220.31 107.088 220.634 107.17 220.895 107.335C221.157 107.5 221.354 107.72 221.488 107.996C221.624 108.271 221.692 108.574 221.692 108.903V109.364C221.692 109.693 221.624 109.996 221.488 110.271C221.351 110.544 221.151 110.764 220.887 110.932C220.626 111.097 220.305 111.179 219.924 111.179C219.54 111.179 219.216 111.097 218.952 110.932C218.688 110.764 218.488 110.544 218.351 110.271C218.215 109.996 218.147 109.693 218.147 109.364ZM219.14 108.903V109.364C219.14 109.608 219.198 109.83 219.314 110.028C219.431 110.227 219.634 110.327 219.924 110.327C220.211 110.327 220.411 110.227 220.525 110.028C220.638 109.83 220.695 109.608 220.695 109.364V108.903C220.695 108.659 220.64 108.437 220.529 108.239C220.421 108.04 220.219 107.94 219.924 107.94C219.64 107.94 219.438 108.04 219.319 108.239C219.199 108.437 219.14 108.659 219.14 108.903ZM213.758 104.369V103.909C213.758 103.58 213.826 103.277 213.962 103.001C214.101 102.726 214.303 102.506 214.567 102.341C214.834 102.176 215.157 102.094 215.535 102.094C215.921 102.094 216.245 102.176 216.506 102.341C216.768 102.506 216.965 102.726 217.099 103.001C217.232 103.277 217.299 103.58 217.299 103.909V104.369C217.299 104.699 217.231 105.001 217.094 105.277C216.961 105.55 216.762 105.77 216.498 105.938C216.236 106.102 215.915 106.185 215.535 106.185C215.148 106.185 214.823 106.102 214.559 105.938C214.297 105.77 214.099 105.55 213.962 105.277C213.826 105.001 213.758 104.699 213.758 104.369ZM214.755 103.909V104.369C214.755 104.614 214.812 104.835 214.925 105.034C215.042 105.233 215.245 105.332 215.535 105.332C215.819 105.332 216.018 105.233 216.131 105.034C216.248 104.835 216.306 104.614 216.306 104.369V103.909C216.306 103.665 216.251 103.443 216.14 103.244C216.029 103.045 215.827 102.946 215.535 102.946C215.251 102.946 215.049 103.045 214.93 103.244C214.813 103.443 214.755 103.665 214.755 103.909ZM214.162 111L220.162 102.273H221.181L215.181 111H214.162Z" fill="#C01048"/>
</g>
<defs>
<linearGradient id="paint0_linear_1110_35320" x1="31" y1="-6" x2="31" y2="220" gradientUnits="userSpaceOnUse">
<stop stop-color="#3382F7"/>
<stop offset="0.677935" stop-color="white" stop-opacity="0"/>
</linearGradient>
<linearGradient id="paint1_linear_1110_35320" x1="199" y1="-6" x2="199" y2="220" gradientUnits="userSpaceOnUse">
<stop stop-color="#FEB623"/>
<stop offset="0.677935" stop-color="white" stop-opacity="0"/>
</linearGradient>
</defs>
</svg>
